<svg xmlns="http://www.w3.org/2000/svg" viewBox="0 0 32 32">
  <defs>
    <linearGradient id="g" x1="0" y1="0" x2="1" y2="1">
      <stop offset="0" stop-color="#7FE3D2"/>
      <stop offset="1" stop-color="#146B8C"/>
    </linearGradient>
  </defs>
  <path d="M12 8.5c-2.4 0-3.6 1.8-3.5 3.6-2.1.4-3.5 2.2-3 4.2.4 1.6 1.6 2.5 2.7 2.8-.5 1.8.4 3.7 2.3 4.4 1.6.6 3.1.1 4-.9.9 1 2.4 1.5 4 .9 1.9-.7 2.8-2.6 2.3-4.4 1.1-.3 2.3-1.2 2.7-2.8.5-2-.9-3.8-3-4.2.1-1.8-1.1-3.6-3.5-3.6-1.1 0-2 .4-2.5 1-.5-.6-1.4-1-2.5-1z" fill="none" stroke="url(#g)" stroke-width="1.5" stroke-linejoin="round"/>
  <path d="M16 9.5v13.5" stroke="url(#g)" stroke-width="1.1" stroke-linecap="round"/>
  <path d="M9.5 14.3c1.1.7 1.9-.6 3-.1" fill="none" stroke="url(#g)" stroke-width="1" stroke-linecap="round"/>
  <path d="M22.5 14.3c-1.1.7-1.9-.6-3-.1" fill="none" stroke="url(#g)" stroke-width="1" stroke-linecap="round"/>
  <path d="M14.5 23.5c0 1.2.7 2 1.5 2s1.5-.8 1.5-2" fill="none" stroke="url(#g)" stroke-width="1.1" stroke-linecap="round"/>
</svg>
